<mxfile host="65bd71144e" pages="2">
    <diagram id="xdscFLAUzVz3awrVkBRg" name="гиря в массиве">
        <mxGraphModel dx="811" dy="399" grid="1" gridSize="10" guides="1" tooltips="1" connect="1" arrows="1" fold="1" page="1" pageScale="1" pageWidth="827" pageHeight="1169" math="0" shadow="0">
            <root>
                <mxCell id="0"/>
                <mxCell id="1" parent="0"/>
                <object label="start" hedietLinkedDataV1_path="../задача 1. лек. гиря в массиве.py" hedietLinkedDataV1_start_col_x-num="9" hedietLinkedDataV1_start_line_x-num="2" hedietLinkedDataV1_end_col_x-num="9" hedietLinkedDataV1_end_line_x-num="2" id="2">
                    <mxCell style="rounded=1;whiteSpace=wrap;html=1;" parent="1" vertex="1">
                        <mxGeometry x="250" y="10" width="80" height="30" as="geometry"/>
                    </mxCell>
                </object>
                <mxCell id="4" value="&lt;div style=&quot;color: rgb(212, 212, 212); background-color: rgb(30, 30, 30); font-family: Consolas, &amp;quot;Courier New&amp;quot;, monospace; font-size: 14px; line-height: 19px;&quot;&gt;&lt;div&gt;&lt;span style=&quot;color: #6a9955;&quot;&gt;numbers = [2, 5, 13, 7, 6, 4]&lt;/span&gt;&lt;/div&gt;&lt;div&gt;&lt;span style=&quot;color: #6a9955;&quot;&gt;elem_massiva = numbers[4] &lt;/span&gt;&lt;/div&gt;&lt;div&gt;&lt;span style=&quot;color: #6a9955;&quot;&gt;size = 6&lt;/span&gt;&lt;/div&gt;&lt;div&gt;&lt;span style=&quot;color: #6a9955;&quot;&gt;index = 0&lt;/span&gt;&lt;/div&gt;&lt;div&gt;&lt;span style=&quot;color: #6a9955;&quot;&gt;max_idx = 0&lt;/span&gt;&lt;/div&gt;&lt;div&gt;&lt;span style=&quot;color: #6a9955;&quot;&gt;max = numbers[max_idx]&lt;/span&gt;&lt;/div&gt;&lt;/div&gt;" style="rounded=0;whiteSpace=wrap;html=1;align=left;" parent="1" vertex="1">
                    <mxGeometry x="175" y="50" width="235" height="110" as="geometry"/>
                </mxCell>
                <mxCell id="5" value="index &amp;lt; size" style="rhombus;whiteSpace=wrap;html=1;" parent="1" vertex="1">
                    <mxGeometry x="230" y="180" width="120" height="40" as="geometry"/>
                </mxCell>
                <mxCell id="6" value="numbers[index] &amp;gt; max" style="rhombus;whiteSpace=wrap;html=1;" parent="1" vertex="1">
                    <mxGeometry x="210" y="240" width="160" height="60" as="geometry"/>
                </mxCell>
                <mxCell id="7" value="max =&amp;nbsp; numbers[index]&lt;br&gt;max_ind = index" style="rounded=0;whiteSpace=wrap;html=1;align=left;" parent="1" vertex="1">
                    <mxGeometry x="220" y="320" width="140" height="50" as="geometry"/>
                </mxCell>
                <mxCell id="8" value="index = index + 1" style="rounded=0;whiteSpace=wrap;html=1;" parent="1" vertex="1">
                    <mxGeometry x="70" y="330" width="120" height="30" as="geometry"/>
                </mxCell>
                <mxCell id="9" value="" style="endArrow=classic;html=1;exitX=0.5;exitY=1;exitDx=0;exitDy=0;entryX=0.5;entryY=0;entryDx=0;entryDy=0;" parent="1" source="6" target="7" edge="1">
                    <mxGeometry width="50" height="50" relative="1" as="geometry">
                        <mxPoint x="380" y="260" as="sourcePoint"/>
                        <mxPoint x="430" y="210" as="targetPoint"/>
                    </mxGeometry>
                </mxCell>
                <mxCell id="10" value="" style="endArrow=classic;html=1;exitX=0;exitY=0.5;exitDx=0;exitDy=0;entryX=1;entryY=0.5;entryDx=0;entryDy=0;" parent="1" source="7" target="8" edge="1">
                    <mxGeometry width="50" height="50" relative="1" as="geometry">
                        <mxPoint x="380" y="260" as="sourcePoint"/>
                        <mxPoint x="430" y="210" as="targetPoint"/>
                    </mxGeometry>
                </mxCell>
                <mxCell id="11" value="" style="endArrow=classic;html=1;exitX=0.5;exitY=1;exitDx=0;exitDy=0;entryX=0.5;entryY=0;entryDx=0;entryDy=0;" parent="1" source="5" target="6" edge="1">
                    <mxGeometry width="50" height="50" relative="1" as="geometry">
                        <mxPoint x="380" y="260" as="sourcePoint"/>
                        <mxPoint x="430" y="210" as="targetPoint"/>
                    </mxGeometry>
                </mxCell>
                <mxCell id="12" value="" style="endArrow=classic;html=1;exitX=0.5;exitY=1;exitDx=0;exitDy=0;entryX=0.5;entryY=0;entryDx=0;entryDy=0;" parent="1" source="2" target="4" edge="1">
                    <mxGeometry width="50" height="50" relative="1" as="geometry">
                        <mxPoint x="390" y="170" as="sourcePoint"/>
                        <mxPoint x="300" y="60" as="targetPoint"/>
                    </mxGeometry>
                </mxCell>
                <mxCell id="14" value="" style="endArrow=classic;html=1;entryX=0.5;entryY=0;entryDx=0;entryDy=0;exitX=0.5;exitY=1;exitDx=0;exitDy=0;" parent="1" source="4" target="5" edge="1">
                    <mxGeometry width="50" height="50" relative="1" as="geometry">
                        <mxPoint x="300" y="190" as="sourcePoint"/>
                        <mxPoint x="440" y="150" as="targetPoint"/>
                    </mxGeometry>
                </mxCell>
                <mxCell id="15" value="" style="endArrow=classic;html=1;exitX=0;exitY=0.5;exitDx=0;exitDy=0;entryX=0.5;entryY=0;entryDx=0;entryDy=0;" parent="1" source="6" target="8" edge="1">
                    <mxGeometry width="50" height="50" relative="1" as="geometry">
                        <mxPoint x="380" y="260" as="sourcePoint"/>
                        <mxPoint x="430" y="210" as="targetPoint"/>
                        <Array as="points">
                            <mxPoint x="130" y="270"/>
                        </Array>
                    </mxGeometry>
                </mxCell>
                <mxCell id="16" value="" style="endArrow=classic;html=1;exitX=0;exitY=0.5;exitDx=0;exitDy=0;entryX=0;entryY=0.5;entryDx=0;entryDy=0;" parent="1" source="8" target="5" edge="1">
                    <mxGeometry width="50" height="50" relative="1" as="geometry">
                        <mxPoint x="380" y="260" as="sourcePoint"/>
                        <mxPoint x="430" y="210" as="targetPoint"/>
                        <Array as="points">
                            <mxPoint x="50" y="335"/>
                            <mxPoint x="50" y="200"/>
                        </Array>
                    </mxGeometry>
                </mxCell>
                <mxCell id="17" value="" style="endArrow=classic;html=1;exitX=1;exitY=0.5;exitDx=0;exitDy=0;entryX=0;entryY=0.5;entryDx=0;entryDy=0;" parent="1" source="5" target="wRpoXOS606LNhhUbke68-29" edge="1">
                    <mxGeometry width="50" height="50" relative="1" as="geometry">
                        <mxPoint x="380" y="260" as="sourcePoint"/>
                        <mxPoint x="400" y="200" as="targetPoint"/>
                    </mxGeometry>
                </mxCell>
                <mxCell id="18" value="print(max)&lt;br&gt;print(max_in)" style="shape=document;whiteSpace=wrap;html=1;boundedLbl=1;align=left;" parent="1" vertex="1">
                    <mxGeometry x="522" y="270" width="116" height="50" as="geometry"/>
                </mxCell>
                <mxCell id="19" value="да" style="text;html=1;strokeColor=none;fillColor=none;align=center;verticalAlign=middle;whiteSpace=wrap;rounded=0;" parent="1" vertex="1">
                    <mxGeometry x="280" y="220" width="60" height="30" as="geometry"/>
                </mxCell>
                <mxCell id="20" value="да" style="text;html=1;strokeColor=none;fillColor=none;align=center;verticalAlign=middle;whiteSpace=wrap;rounded=0;" parent="1" vertex="1">
                    <mxGeometry x="280" y="290" width="60" height="30" as="geometry"/>
                </mxCell>
                <mxCell id="21" value="нет" style="text;html=1;strokeColor=none;fillColor=none;align=center;verticalAlign=middle;whiteSpace=wrap;rounded=0;" parent="1" vertex="1">
                    <mxGeometry x="150" y="240" width="60" height="30" as="geometry"/>
                </mxCell>
                <mxCell id="22" value="нет" style="text;html=1;strokeColor=none;fillColor=none;align=center;verticalAlign=middle;whiteSpace=wrap;rounded=0;" parent="1" vertex="1">
                    <mxGeometry x="340" y="210" width="60" height="30" as="geometry"/>
                </mxCell>
                <mxCell id="23" value="while" style="text;html=1;strokeColor=none;fillColor=none;align=center;verticalAlign=middle;whiteSpace=wrap;rounded=0;" parent="1" vertex="1">
                    <mxGeometry x="200" y="170" width="60" height="30" as="geometry"/>
                </mxCell>
                <mxCell id="24" value="if" style="text;html=1;strokeColor=none;fillColor=none;align=center;verticalAlign=middle;whiteSpace=wrap;rounded=0;" parent="1" vertex="1">
                    <mxGeometry x="220" y="220" width="60" height="30" as="geometry"/>
                </mxCell>
                <mxCell id="25" value="" style="endArrow=classic;html=1;entryX=0.75;entryY=1;entryDx=0;entryDy=0;" parent="1" target="24" edge="1">
                    <mxGeometry width="50" height="50" relative="1" as="geometry">
                        <mxPoint x="250" y="240" as="sourcePoint"/>
                        <mxPoint x="310" y="180" as="targetPoint"/>
                    </mxGeometry>
                </mxCell>
                <mxCell id="26" value="тогда" style="text;html=1;strokeColor=none;fillColor=none;align=center;verticalAlign=middle;whiteSpace=wrap;rounded=0;" parent="1" vertex="1">
                    <mxGeometry x="220" y="290" width="60" height="30" as="geometry"/>
                </mxCell>
                <mxCell id="27" value="иначе" style="text;html=1;strokeColor=none;fillColor=none;align=center;verticalAlign=middle;whiteSpace=wrap;rounded=0;" parent="1" vertex="1">
                    <mxGeometry x="70" y="300" width="60" height="30" as="geometry"/>
                </mxCell>
                <mxCell id="wRpoXOS606LNhhUbke68-29" value="&lt;div style=&quot;color: rgb(212, 212, 212); background-color: rgb(30, 30, 30); font-family: Consolas, &amp;quot;Courier New&amp;quot;, monospace; font-size: 14px; line-height: 19px;&quot;&gt;&lt;div&gt;&lt;span style=&quot;color: #6a9955;&quot;&gt;numbers[max_idx] = numbers[size-1]&lt;/span&gt;&lt;/div&gt;&lt;div&gt;&lt;span style=&quot;color: #6a9955;&quot;&gt;numbers[size-1] = max&lt;/span&gt;&lt;/div&gt;&lt;/div&gt;" style="rounded=0;whiteSpace=wrap;html=1;" parent="1" vertex="1">
                    <mxGeometry x="440" y="170" width="280" height="60" as="geometry"/>
                </mxCell>
                <mxCell id="wRpoXOS606LNhhUbke68-31" style="edgeStyle=orthogonalEdgeStyle;rounded=0;orthogonalLoop=1;jettySize=auto;html=1;exitX=0.5;exitY=1;exitDx=0;exitDy=0;" parent="1" source="22" target="22" edge="1">
                    <mxGeometry relative="1" as="geometry"/>
                </mxCell>
                <mxCell id="wRpoXOS606LNhhUbke68-32" value="" style="endArrow=classic;html=1;rounded=0;exitX=0.5;exitY=1;exitDx=0;exitDy=0;entryX=0.5;entryY=0;entryDx=0;entryDy=0;" parent="1" source="wRpoXOS606LNhhUbke68-29" target="18" edge="1">
                    <mxGeometry width="50" height="50" relative="1" as="geometry">
                        <mxPoint x="410" y="230" as="sourcePoint"/>
                        <mxPoint x="460" y="180" as="targetPoint"/>
                    </mxGeometry>
                </mxCell>
            </root>
        </mxGraphModel>
    </diagram>
    <diagram id="bfkjd63SZ5u7sHkZYjV0" name="гиря в констр. if">
        <mxGraphModel dx="515" dy="177" grid="1" gridSize="10" guides="1" tooltips="1" connect="1" arrows="1" fold="1" page="1" pageScale="1" pageWidth="827" pageHeight="1169" math="0" shadow="0">
            <root>
                <mxCell id="DcHXMVRQWfj_0BZAO2WU-0"/>
                <mxCell id="DcHXMVRQWfj_0BZAO2WU-1" parent="DcHXMVRQWfj_0BZAO2WU-0"/>
                <mxCell id="DcHXMVRQWfj_0BZAO2WU-2" value="start" style="rounded=1;whiteSpace=wrap;html=1;" parent="DcHXMVRQWfj_0BZAO2WU-1" vertex="1">
                    <mxGeometry x="60" y="20" width="110" height="30" as="geometry"/>
                </mxCell>
                <mxCell id="DcHXMVRQWfj_0BZAO2WU-3" value="a = 1&lt;br&gt;b = 8&lt;br&gt;c = 3&lt;br&gt;d = 2&lt;br&gt;e = 6&amp;nbsp;" style="shape=parallelogram;perimeter=parallelogramPerimeter;whiteSpace=wrap;html=1;fixedSize=1;" parent="DcHXMVRQWfj_0BZAO2WU-1" vertex="1">
                    <mxGeometry x="40" y="80" width="150" height="80" as="geometry"/>
                </mxCell>
                <object label="max = a" id="DcHXMVRQWfj_0BZAO2WU-4">
                    <mxCell style="rounded=0;whiteSpace=wrap;html=1;" parent="DcHXMVRQWfj_0BZAO2WU-1" vertex="1">
                        <mxGeometry x="245" y="80" width="120" height="30" as="geometry"/>
                    </mxCell>
                </object>
                <mxCell id="DcHXMVRQWfj_0BZAO2WU-5" value="b &amp;gt; max" style="rhombus;whiteSpace=wrap;html=1;" parent="DcHXMVRQWfj_0BZAO2WU-1" vertex="1">
                    <mxGeometry x="265" y="130" width="80" height="80" as="geometry"/>
                </mxCell>
                <mxCell id="DcHXMVRQWfj_0BZAO2WU-6" value="max = b" style="rounded=0;whiteSpace=wrap;html=1;" parent="DcHXMVRQWfj_0BZAO2WU-1" vertex="1">
                    <mxGeometry x="245" y="240" width="120" height="30" as="geometry"/>
                </mxCell>
                <mxCell id="DcHXMVRQWfj_0BZAO2WU-7" value="c &amp;gt; max" style="rhombus;whiteSpace=wrap;html=1;" parent="DcHXMVRQWfj_0BZAO2WU-1" vertex="1">
                    <mxGeometry x="405" y="215" width="80" height="80" as="geometry"/>
                </mxCell>
                <mxCell id="DcHXMVRQWfj_0BZAO2WU-8" value="max = c" style="rounded=0;whiteSpace=wrap;html=1;" parent="DcHXMVRQWfj_0BZAO2WU-1" vertex="1">
                    <mxGeometry x="385" y="320" width="120" height="30" as="geometry"/>
                </mxCell>
                <mxCell id="DcHXMVRQWfj_0BZAO2WU-9" value="d &amp;gt; max" style="rhombus;whiteSpace=wrap;html=1;" parent="DcHXMVRQWfj_0BZAO2WU-1" vertex="1">
                    <mxGeometry x="550" y="295" width="80" height="80" as="geometry"/>
                </mxCell>
                <mxCell id="DcHXMVRQWfj_0BZAO2WU-10" value="max =&amp;nbsp; d" style="rounded=0;whiteSpace=wrap;html=1;" parent="DcHXMVRQWfj_0BZAO2WU-1" vertex="1">
                    <mxGeometry x="530" y="400" width="120" height="30" as="geometry"/>
                </mxCell>
                <mxCell id="DcHXMVRQWfj_0BZAO2WU-11" value="e &amp;gt; max" style="rhombus;whiteSpace=wrap;html=1;" parent="DcHXMVRQWfj_0BZAO2WU-1" vertex="1">
                    <mxGeometry x="700" y="375" width="80" height="80" as="geometry"/>
                </mxCell>
                <mxCell id="DcHXMVRQWfj_0BZAO2WU-12" value="max = e" style="rounded=0;whiteSpace=wrap;html=1;" parent="DcHXMVRQWfj_0BZAO2WU-1" vertex="1">
                    <mxGeometry x="680" y="480" width="120" height="30" as="geometry"/>
                </mxCell>
                <mxCell id="DcHXMVRQWfj_0BZAO2WU-13" value="" style="endArrow=classic;html=1;exitX=1;exitY=0.5;exitDx=0;exitDy=0;entryX=0.5;entryY=0;entryDx=0;entryDy=0;" parent="DcHXMVRQWfj_0BZAO2WU-1" source="DcHXMVRQWfj_0BZAO2WU-5" target="DcHXMVRQWfj_0BZAO2WU-7" edge="1">
                    <mxGeometry width="50" height="50" relative="1" as="geometry">
                        <mxPoint x="400" y="230" as="sourcePoint"/>
                        <mxPoint x="450" y="180" as="targetPoint"/>
                        <Array as="points">
                            <mxPoint x="445" y="170"/>
                        </Array>
                    </mxGeometry>
                </mxCell>
                <mxCell id="DcHXMVRQWfj_0BZAO2WU-14" value="" style="endArrow=classic;html=1;exitX=0.5;exitY=1;exitDx=0;exitDy=0;" parent="DcHXMVRQWfj_0BZAO2WU-1" source="DcHXMVRQWfj_0BZAO2WU-2" target="DcHXMVRQWfj_0BZAO2WU-3" edge="1">
                    <mxGeometry width="50" height="50" relative="1" as="geometry">
                        <mxPoint x="280" y="170" as="sourcePoint"/>
                        <mxPoint x="330" y="120" as="targetPoint"/>
                    </mxGeometry>
                </mxCell>
                <mxCell id="DcHXMVRQWfj_0BZAO2WU-15" value="" style="endArrow=classic;html=1;entryX=0.5;entryY=0;entryDx=0;entryDy=0;exitX=1;exitY=0.5;exitDx=0;exitDy=0;" parent="DcHXMVRQWfj_0BZAO2WU-1" source="DcHXMVRQWfj_0BZAO2WU-3" target="DcHXMVRQWfj_0BZAO2WU-4" edge="1">
                    <mxGeometry width="50" height="50" relative="1" as="geometry">
                        <mxPoint x="280" y="170" as="sourcePoint"/>
                        <mxPoint x="330" y="120" as="targetPoint"/>
                        <Array as="points">
                            <mxPoint x="220" y="120"/>
                            <mxPoint x="220" y="40"/>
                            <mxPoint x="305" y="40"/>
                        </Array>
                    </mxGeometry>
                </mxCell>
                <mxCell id="DcHXMVRQWfj_0BZAO2WU-16" value="" style="endArrow=classic;html=1;exitX=0.5;exitY=1;exitDx=0;exitDy=0;" parent="DcHXMVRQWfj_0BZAO2WU-1" source="DcHXMVRQWfj_0BZAO2WU-4" target="DcHXMVRQWfj_0BZAO2WU-5" edge="1">
                    <mxGeometry width="50" height="50" relative="1" as="geometry">
                        <mxPoint x="470" y="140" as="sourcePoint"/>
                        <mxPoint x="520" y="90" as="targetPoint"/>
                    </mxGeometry>
                </mxCell>
                <mxCell id="DcHXMVRQWfj_0BZAO2WU-17" value="" style="endArrow=classic;html=1;exitX=0.5;exitY=1;exitDx=0;exitDy=0;entryX=0.5;entryY=0;entryDx=0;entryDy=0;" parent="DcHXMVRQWfj_0BZAO2WU-1" source="DcHXMVRQWfj_0BZAO2WU-5" target="DcHXMVRQWfj_0BZAO2WU-6" edge="1">
                    <mxGeometry width="50" height="50" relative="1" as="geometry">
                        <mxPoint x="470" y="240" as="sourcePoint"/>
                        <mxPoint x="520" y="190" as="targetPoint"/>
                    </mxGeometry>
                </mxCell>
                <mxCell id="DcHXMVRQWfj_0BZAO2WU-18" value="" style="endArrow=classic;html=1;exitX=0.5;exitY=1;exitDx=0;exitDy=0;entryX=0.5;entryY=0;entryDx=0;entryDy=0;" parent="DcHXMVRQWfj_0BZAO2WU-1" source="DcHXMVRQWfj_0BZAO2WU-7" target="DcHXMVRQWfj_0BZAO2WU-8" edge="1">
                    <mxGeometry width="50" height="50" relative="1" as="geometry">
                        <mxPoint x="470" y="240" as="sourcePoint"/>
                        <mxPoint x="520" y="190" as="targetPoint"/>
                    </mxGeometry>
                </mxCell>
                <mxCell id="DcHXMVRQWfj_0BZAO2WU-19" value="" style="endArrow=classic;html=1;exitX=0.5;exitY=1;exitDx=0;exitDy=0;entryX=0.5;entryY=0;entryDx=0;entryDy=0;" parent="DcHXMVRQWfj_0BZAO2WU-1" source="DcHXMVRQWfj_0BZAO2WU-9" target="DcHXMVRQWfj_0BZAO2WU-10" edge="1">
                    <mxGeometry width="50" height="50" relative="1" as="geometry">
                        <mxPoint x="475" y="260" as="sourcePoint"/>
                        <mxPoint x="525" y="210" as="targetPoint"/>
                    </mxGeometry>
                </mxCell>
                <mxCell id="DcHXMVRQWfj_0BZAO2WU-20" value="" style="endArrow=classic;html=1;exitX=1;exitY=0.5;exitDx=0;exitDy=0;entryX=0;entryY=0.5;entryDx=0;entryDy=0;" parent="DcHXMVRQWfj_0BZAO2WU-1" source="DcHXMVRQWfj_0BZAO2WU-6" target="DcHXMVRQWfj_0BZAO2WU-7" edge="1">
                    <mxGeometry width="50" height="50" relative="1" as="geometry">
                        <mxPoint x="380" y="240" as="sourcePoint"/>
                        <mxPoint x="430" y="190" as="targetPoint"/>
                    </mxGeometry>
                </mxCell>
                <mxCell id="DcHXMVRQWfj_0BZAO2WU-21" value="" style="endArrow=classic;html=1;exitX=1;exitY=0.5;exitDx=0;exitDy=0;entryX=0.5;entryY=0;entryDx=0;entryDy=0;" parent="DcHXMVRQWfj_0BZAO2WU-1" source="DcHXMVRQWfj_0BZAO2WU-7" target="DcHXMVRQWfj_0BZAO2WU-9" edge="1">
                    <mxGeometry width="50" height="50" relative="1" as="geometry">
                        <mxPoint x="380" y="240" as="sourcePoint"/>
                        <mxPoint x="430" y="190" as="targetPoint"/>
                        <Array as="points">
                            <mxPoint x="590" y="255"/>
                        </Array>
                    </mxGeometry>
                </mxCell>
                <mxCell id="DcHXMVRQWfj_0BZAO2WU-22" value="" style="endArrow=classic;html=1;exitX=1;exitY=0.5;exitDx=0;exitDy=0;entryX=0;entryY=0.5;entryDx=0;entryDy=0;" parent="DcHXMVRQWfj_0BZAO2WU-1" source="DcHXMVRQWfj_0BZAO2WU-8" target="DcHXMVRQWfj_0BZAO2WU-9" edge="1">
                    <mxGeometry width="50" height="50" relative="1" as="geometry">
                        <mxPoint x="510" y="340" as="sourcePoint"/>
                        <mxPoint x="550" y="220" as="targetPoint"/>
                    </mxGeometry>
                </mxCell>
                <mxCell id="DcHXMVRQWfj_0BZAO2WU-23" value="" style="endArrow=classic;html=1;exitX=1;exitY=0.5;exitDx=0;exitDy=0;entryX=0.5;entryY=0;entryDx=0;entryDy=0;" parent="DcHXMVRQWfj_0BZAO2WU-1" source="DcHXMVRQWfj_0BZAO2WU-9" target="DcHXMVRQWfj_0BZAO2WU-11" edge="1">
                    <mxGeometry width="50" height="50" relative="1" as="geometry">
                        <mxPoint x="570" y="340" as="sourcePoint"/>
                        <mxPoint x="620" y="290" as="targetPoint"/>
                        <Array as="points">
                            <mxPoint x="740" y="335"/>
                        </Array>
                    </mxGeometry>
                </mxCell>
                <mxCell id="DcHXMVRQWfj_0BZAO2WU-24" value="" style="endArrow=classic;html=1;exitX=1;exitY=0.5;exitDx=0;exitDy=0;entryX=0;entryY=0.5;entryDx=0;entryDy=0;" parent="DcHXMVRQWfj_0BZAO2WU-1" source="DcHXMVRQWfj_0BZAO2WU-10" target="DcHXMVRQWfj_0BZAO2WU-11" edge="1">
                    <mxGeometry width="50" height="50" relative="1" as="geometry">
                        <mxPoint x="570" y="340" as="sourcePoint"/>
                        <mxPoint x="620" y="290" as="targetPoint"/>
                    </mxGeometry>
                </mxCell>
                <mxCell id="DcHXMVRQWfj_0BZAO2WU-25" value="" style="endArrow=classic;html=1;exitX=0.5;exitY=1;exitDx=0;exitDy=0;" parent="DcHXMVRQWfj_0BZAO2WU-1" source="DcHXMVRQWfj_0BZAO2WU-11" target="DcHXMVRQWfj_0BZAO2WU-12" edge="1">
                    <mxGeometry width="50" height="50" relative="1" as="geometry">
                        <mxPoint x="570" y="340" as="sourcePoint"/>
                        <mxPoint x="620" y="290" as="targetPoint"/>
                    </mxGeometry>
                </mxCell>
                <mxCell id="DcHXMVRQWfj_0BZAO2WU-26" value="print(max)" style="shape=document;whiteSpace=wrap;html=1;boundedLbl=1;" parent="DcHXMVRQWfj_0BZAO2WU-1" vertex="1">
                    <mxGeometry x="850" y="470" width="100" height="50" as="geometry"/>
                </mxCell>
                <mxCell id="DcHXMVRQWfj_0BZAO2WU-27" value="" style="endArrow=classic;html=1;exitX=1;exitY=0.5;exitDx=0;exitDy=0;entryX=0.5;entryY=0;entryDx=0;entryDy=0;" parent="DcHXMVRQWfj_0BZAO2WU-1" source="DcHXMVRQWfj_0BZAO2WU-11" target="DcHXMVRQWfj_0BZAO2WU-26" edge="1">
                    <mxGeometry width="50" height="50" relative="1" as="geometry">
                        <mxPoint x="770" y="540" as="sourcePoint"/>
                        <mxPoint x="820" y="490" as="targetPoint"/>
                        <Array as="points">
                            <mxPoint x="900" y="415"/>
                        </Array>
                    </mxGeometry>
                </mxCell>
                <mxCell id="DcHXMVRQWfj_0BZAO2WU-28" value="" style="endArrow=classic;html=1;exitX=1;exitY=0.5;exitDx=0;exitDy=0;entryX=0;entryY=0.5;entryDx=0;entryDy=0;" parent="DcHXMVRQWfj_0BZAO2WU-1" source="DcHXMVRQWfj_0BZAO2WU-12" target="DcHXMVRQWfj_0BZAO2WU-26" edge="1">
                    <mxGeometry width="50" height="50" relative="1" as="geometry">
                        <mxPoint x="770" y="540" as="sourcePoint"/>
                        <mxPoint x="820" y="490" as="targetPoint"/>
                        <Array as="points">
                            <mxPoint x="830" y="495"/>
                        </Array>
                    </mxGeometry>
                </mxCell>
                <mxCell id="DcHXMVRQWfj_0BZAO2WU-29" value="" style="endArrow=classic;html=1;exitX=0.504;exitY=0.884;exitDx=0;exitDy=0;exitPerimeter=0;entryX=0.5;entryY=0;entryDx=0;entryDy=0;" parent="DcHXMVRQWfj_0BZAO2WU-1" source="DcHXMVRQWfj_0BZAO2WU-26" edge="1">
                    <mxGeometry width="50" height="50" relative="1" as="geometry">
                        <mxPoint x="770" y="540" as="sourcePoint"/>
                        <mxPoint x="900" y="540" as="targetPoint"/>
                    </mxGeometry>
                </mxCell>
                <mxCell id="DcHXMVRQWfj_0BZAO2WU-30" value="no" style="text;html=1;strokeColor=none;fillColor=none;align=center;verticalAlign=middle;whiteSpace=wrap;rounded=0;" parent="DcHXMVRQWfj_0BZAO2WU-1" vertex="1">
                    <mxGeometry x="345" y="140" width="60" height="30" as="geometry"/>
                </mxCell>
                <mxCell id="DcHXMVRQWfj_0BZAO2WU-31" value="no" style="text;html=1;strokeColor=none;fillColor=none;align=center;verticalAlign=middle;whiteSpace=wrap;rounded=0;" parent="DcHXMVRQWfj_0BZAO2WU-1" vertex="1">
                    <mxGeometry x="490" y="220" width="60" height="30" as="geometry"/>
                </mxCell>
                <mxCell id="DcHXMVRQWfj_0BZAO2WU-32" value="no" style="text;html=1;strokeColor=none;fillColor=none;align=center;verticalAlign=middle;whiteSpace=wrap;rounded=0;" parent="DcHXMVRQWfj_0BZAO2WU-1" vertex="1">
                    <mxGeometry x="650" y="300" width="60" height="30" as="geometry"/>
                </mxCell>
                <mxCell id="DcHXMVRQWfj_0BZAO2WU-33" value="no" style="text;html=1;strokeColor=none;fillColor=none;align=center;verticalAlign=middle;whiteSpace=wrap;rounded=0;" parent="DcHXMVRQWfj_0BZAO2WU-1" vertex="1">
                    <mxGeometry x="800" y="380" width="60" height="30" as="geometry"/>
                </mxCell>
                <mxCell id="DcHXMVRQWfj_0BZAO2WU-34" value="yes" style="text;html=1;strokeColor=none;fillColor=none;align=center;verticalAlign=middle;whiteSpace=wrap;rounded=0;" parent="DcHXMVRQWfj_0BZAO2WU-1" vertex="1">
                    <mxGeometry x="240" y="210" width="60" height="30" as="geometry"/>
                </mxCell>
                <mxCell id="DcHXMVRQWfj_0BZAO2WU-35" value="yes" style="text;html=1;strokeColor=none;fillColor=none;align=center;verticalAlign=middle;whiteSpace=wrap;rounded=0;" parent="DcHXMVRQWfj_0BZAO2WU-1" vertex="1">
                    <mxGeometry x="380" y="290" width="60" height="30" as="geometry"/>
                </mxCell>
                <mxCell id="DcHXMVRQWfj_0BZAO2WU-36" value="yes" style="text;html=1;strokeColor=none;fillColor=none;align=center;verticalAlign=middle;whiteSpace=wrap;rounded=0;" parent="DcHXMVRQWfj_0BZAO2WU-1" vertex="1">
                    <mxGeometry x="520" y="370" width="60" height="30" as="geometry"/>
                </mxCell>
                <mxCell id="DcHXMVRQWfj_0BZAO2WU-37" value="yes" style="text;html=1;strokeColor=none;fillColor=none;align=center;verticalAlign=middle;whiteSpace=wrap;rounded=0;" parent="DcHXMVRQWfj_0BZAO2WU-1" vertex="1">
                    <mxGeometry x="680" y="450" width="60" height="30" as="geometry"/>
                </mxCell>
                <mxCell id="DcHXMVRQWfj_0BZAO2WU-38" value="&lt;span&gt;finish&lt;/span&gt;" style="rounded=1;whiteSpace=wrap;html=1;" parent="DcHXMVRQWfj_0BZAO2WU-1" vertex="1">
                    <mxGeometry x="850" y="540" width="100" height="30" as="geometry"/>
                </mxCell>
                <mxCell id="DF2ZXdQ87nGuqj8pVvYk-1" value="&lt;div style=&quot;color: rgb(212 , 212 , 212) ; background-color: rgb(30 , 30 , 30) ; font-family: &amp;#34;consolas&amp;#34; , &amp;#34;courier new&amp;#34; , monospace ; font-size: 14px ; line-height: 19px&quot;&gt;&lt;div&gt;&lt;span style=&quot;color: #9cdcfe&quot;&gt;a&lt;/span&gt; = &lt;span style=&quot;color: #b5cea8&quot;&gt;1&lt;/span&gt;&lt;/div&gt;&lt;div&gt;&lt;span style=&quot;color: #9cdcfe&quot;&gt;b&lt;/span&gt; = &lt;span style=&quot;color: #b5cea8&quot;&gt;8&lt;/span&gt;&lt;/div&gt;&lt;div&gt;&lt;span style=&quot;color: #9cdcfe&quot;&gt;c&lt;/span&gt; = &lt;span style=&quot;color: #b5cea8&quot;&gt;3&lt;/span&gt;&lt;/div&gt;&lt;div&gt;&lt;span style=&quot;color: #9cdcfe&quot;&gt;d&lt;/span&gt; = &lt;span style=&quot;color: #b5cea8&quot;&gt;2&lt;/span&gt;&lt;/div&gt;&lt;div&gt;&lt;span style=&quot;color: #9cdcfe&quot;&gt;e&lt;/span&gt; = &lt;span style=&quot;color: #b5cea8&quot;&gt;6&lt;/span&gt;&lt;/div&gt;&lt;div&gt;&lt;span style=&quot;color: rgb(156 , 220 , 254)&quot;&gt;max&lt;/span&gt; = &lt;span style=&quot;color: rgb(156 , 220 , 254)&quot;&gt;a&lt;/span&gt;&lt;/div&gt;&lt;div&gt;&lt;span style=&quot;color: #c586c0&quot;&gt;if&lt;/span&gt; &lt;span style=&quot;color: #9cdcfe&quot;&gt;b&lt;/span&gt; &amp;gt; &lt;span style=&quot;color: #9cdcfe&quot;&gt;max&lt;/span&gt;: &lt;span style=&quot;color: #9cdcfe&quot;&gt;max&lt;/span&gt; = &lt;span style=&quot;color: #9cdcfe&quot;&gt;b&lt;/span&gt;&lt;/div&gt;&lt;div&gt;&lt;span style=&quot;color: #c586c0&quot;&gt;if&lt;/span&gt; &lt;span style=&quot;color: #9cdcfe&quot;&gt;c&lt;/span&gt; &amp;gt; &lt;span style=&quot;color: #9cdcfe&quot;&gt;max&lt;/span&gt;: &lt;span style=&quot;color: #9cdcfe&quot;&gt;max&lt;/span&gt; = &lt;span style=&quot;color: #9cdcfe&quot;&gt;c&lt;/span&gt;&lt;/div&gt;&lt;div&gt;&lt;span style=&quot;color: #c586c0&quot;&gt;if&lt;/span&gt; &lt;span style=&quot;color: #9cdcfe&quot;&gt;d&lt;/span&gt; &amp;gt; &lt;span style=&quot;color: #9cdcfe&quot;&gt;max&lt;/span&gt;: &lt;span style=&quot;color: #9cdcfe&quot;&gt;max&lt;/span&gt; = &lt;span style=&quot;color: #9cdcfe&quot;&gt;d&lt;/span&gt;&lt;/div&gt;&lt;div&gt;&lt;span style=&quot;color: #c586c0&quot;&gt;if&lt;/span&gt; &lt;span style=&quot;color: #9cdcfe&quot;&gt;e&lt;/span&gt; &amp;gt; &lt;span style=&quot;color: #9cdcfe&quot;&gt;max&lt;/span&gt;: &lt;span style=&quot;color: #9cdcfe&quot;&gt;max&lt;/span&gt; = &lt;span style=&quot;color: #9cdcfe&quot;&gt;e&lt;/span&gt; &lt;/div&gt;&lt;div&gt;&lt;span style=&quot;color: #dcdcaa&quot;&gt;print&lt;/span&gt;(&lt;span style=&quot;color: #9cdcfe&quot;&gt;max&lt;/span&gt;)&lt;/div&gt;&lt;div&gt;&lt;span style=&quot;color: #dcdcaa&quot;&gt;print&lt;/span&gt;(&lt;span style=&quot;color: #ce9178&quot;&gt;'получаем гирю/кг&amp;nbsp;&lt;/span&gt;&lt;span style=&quot;color: rgb(206 , 145 , 120)&quot;&gt;:'&lt;/span&gt;+ &lt;span style=&quot;color: rgb(78 , 201 , 176)&quot;&gt;str&lt;/span&gt;(&lt;span style=&quot;color: rgb(156 , 220 , 254)&quot;&gt;max&lt;/span&gt;))&lt;/div&gt;&lt;div style=&quot;line-height: 19px&quot;&gt;&lt;br&gt;&lt;/div&gt;&lt;/div&gt;" style="text;html=1;strokeColor=none;fillColor=none;align=left;verticalAlign=middle;whiteSpace=wrap;rounded=0;" parent="DcHXMVRQWfj_0BZAO2WU-1" vertex="1">
                    <mxGeometry y="200" width="230" height="270" as="geometry"/>
                </mxCell>
            </root>
        </mxGraphModel>
    </diagram>
</mxfile>